<svg width="683" height="683" viewBox="0 0 683 683" fill="none" xmlns="http://www.w3.org/2000/svg">
<g clip-path="url(#clip0_11_2)">
<path d="M311.625 120.342C297.443 80.9997 296.306 36.8387 309.148 -3C309.753 5.97567 309.331 15.0249 311.001 23.9086C313.056 39.6896 318.78 54.6429 324.76 69.3019C340.116 106.124 364.095 139.434 394.898 164.816C419.739 185.783 448.615 201.288 473.474 222.238C530.458 267.962 566.38 338.498 570.764 411.463C574.268 492.188 538.512 573.54 477.235 625.922C463.898 636.682 450.322 647.295 435.168 655.406C394.751 677.918 347.308 687.005 301.424 681.376C251.046 674.7 202.997 651.525 165.938 616.707C159.571 611.429 155.572 603.796 148.527 599.253C124.273 579.021 107.982 549.096 104.478 517.626C102.056 488.933 109.028 459.964 121.081 434.049C130.676 413.063 146.491 395.994 159.48 377.197C173.625 357.958 186.449 337.56 195.31 315.305C200.63 302.596 202.593 288.838 204.244 275.246C209.84 296.802 207.583 319.536 203.235 341.092C199.731 358.786 192.503 375.358 185.385 391.819C183.917 396.344 178.486 397.263 176.01 401.052C166.36 413.504 156.251 425.643 147.793 438.941C135.795 458.842 127.209 481.465 126.64 504.916C126.493 550.015 160.617 591.822 203.822 602.913C227.195 609.553 251.743 609.792 275.831 609.203C318.027 607.014 360.334 595.114 395.705 571.48C419.39 555.938 439.186 534.676 453.789 510.397C456.046 506.7 457.972 502.783 459.238 498.626L459.843 498.479C460.284 498.387 461.146 498.184 461.568 498.092C461.568 490.551 466.888 484.831 469.328 478.081C474.263 464.93 478.061 451.301 480.042 437.378C487.913 399.489 481.162 360.073 467.384 324.41C453.807 291.027 433.351 261.01 411.079 232.924C401.172 221.355 391.724 209.4 381.964 197.72C372.607 185.36 361.489 174.306 353.546 160.898C354.096 169.175 357.307 176.936 359.581 184.827C365.159 201.38 369.8 218.614 369.268 236.253C369.543 251.685 365.727 266.859 360.425 281.26C346.28 317.917 322.999 351.337 292.379 376.056C268.529 396.583 239.487 409.531 211.363 422.94C225.801 410.359 241.285 398.698 253.944 384.241C250.165 385.106 246.422 386.136 242.625 386.853C244.257 382.126 249.339 380.158 252.77 376.958C287.187 350.583 316.633 315.839 330.576 274.234C342.208 240.079 340.538 202.3 329.237 168.31C324.192 152.014 317.459 136.344 311.625 120.342Z" fill="black"/>
<path d="M199.401 100.312C221.637 115.063 236.258 139.397 243.45 164.76C249.963 186.409 247.945 209.749 255.669 231.103C261.191 246.737 260.916 263.474 260.108 279.826C258.182 289.794 257.265 300.205 252.825 309.475C252.495 312.73 252.201 316.004 251.669 319.241C251.339 306.348 251.651 293.455 251.027 280.561C250.147 274.584 249.541 268.036 245.413 263.272C244.863 273.498 246.881 284.056 243.395 293.97C239.487 304.876 235.029 315.82 227.562 324.833C230.039 310.707 234.717 295.993 230.846 281.665C228.59 273.057 222.517 266.307 218.316 258.692C216.72 245.909 227.452 231.305 217.949 219.939C217.821 205.151 220.297 190.473 219.618 175.667C218.499 152.272 214.72 128.563 204.611 107.246C203.345 104.616 201.309 102.482 199.401 100.312Z" fill="#F66C24"/>
<path d="M264.53 168.88L267.649 168.2C267.704 169.616 267.814 172.43 267.869 173.846C268.199 173 268.86 171.308 269.19 170.481C268.401 184.864 282.454 194.869 282.491 209.234C282.399 221.245 284.014 233.733 280.858 245.394C280.399 247.859 279.996 250.342 279.592 252.825C278.877 246.056 279.5 239.141 278.124 232.446C275.721 223.93 272.364 215.653 267.961 207.947C264.677 201.822 260.329 195.789 260.035 188.579C259.778 181.737 262.292 175.226 264.53 168.88Z" fill="#F66C24"/>
<path d="M206.813 204.93C210.647 208.793 215.307 212.085 217.509 217.29C213.95 217.051 210.409 216.885 206.868 216.83C206.905 212.857 206.868 208.885 206.813 204.93Z" fill="#F66C24"/>
<path d="M210.189 273.517C211.253 273.664 213.381 273.977 214.445 274.124C215.692 275.301 216.958 276.496 218.224 277.674C218.298 280.947 218.096 284.24 217.637 287.495C216.243 283.522 213.784 280.12 210.794 277.214C210.647 276.294 210.335 274.436 210.189 273.517Z" fill="#F66C24"/>
<path d="M397.081 368.479C409.575 340.687 408.511 309.548 415.335 280.359C417.243 285.84 419.041 291.358 420.234 297.041C425.132 319.462 435.553 340.264 448.304 359.19C459.33 375.192 470.668 391.672 475.548 410.764C478.098 419.427 478.905 428.439 480.042 437.378C478.061 451.301 474.263 464.93 469.328 478.081C466.888 484.831 461.568 490.551 461.568 498.092C461.146 498.184 460.284 498.387 459.843 498.479C459.55 498.479 458.963 498.479 458.651 498.479C462.393 493.347 462.008 487.002 462.32 481.006C464.522 464.084 462.082 446.63 456.247 430.628C452.303 419.151 444.854 409.329 437.222 400.096C429.554 392.168 422.142 383.726 412.602 378.043C412.528 398.643 410.345 420.604 397.943 437.819C385.688 455.035 365.507 468.59 343.712 467.266C330.87 467.45 318.321 460.295 311.551 449.425C305.79 439.052 303.497 426.581 305.387 414.865C307.937 388.306 324.522 366.272 338.795 344.77C339.878 353.047 336.337 360.809 335.199 368.883C332.723 381.409 332.301 394.872 337.107 406.938C340.3 414.074 349.087 420.346 356.738 415.638C375.433 405.503 387.724 387.055 397.081 368.479Z" fill="#F66C24"/>
<path d="M459.843 498.479L459.238 498.626C457.972 502.783 456.046 506.7 453.789 510.397C439.186 534.676 419.39 555.938 395.705 571.48C360.334 595.114 318.027 607.014 275.831 609.203C251.743 609.792 227.195 609.553 203.822 602.913C160.617 591.822 126.493 550.015 126.64 504.916C127.209 481.465 135.795 458.842 147.793 438.941C156.251 425.643 166.36 413.504 176.01 401.052C178.486 397.263 183.917 396.344 185.385 391.819C192.503 375.358 199.731 358.786 203.235 341.092C207.583 319.536 209.84 296.802 204.244 275.246C202.593 288.838 200.63 302.596 195.31 315.305C186.449 337.56 173.625 357.958 159.48 377.197C146.491 395.994 130.676 413.063 121.081 434.049C109.028 459.964 102.056 488.933 104.478 517.626C107.982 549.096 124.273 579.021 148.527 599.253C155.572 603.796 159.571 611.429 165.938 616.707C202.997 651.525 251.046 674.7 301.424 681.376C347.308 687.005 394.751 677.918 435.168 655.406C450.322 647.295 463.898 636.682 477.235 625.922C538.512 573.54 574.268 492.188 570.764 411.463C566.38 338.498 530.458 267.962 473.474 222.238C448.615 201.288 419.739 185.783 394.898 164.816C364.095 139.434 340.116 106.124 324.76 69.3019C318.78 54.6429 313.056 39.6896 311.001 23.9086C309.331 15.0249 309.753 5.97567 309.148 -3C296.306 36.8387 297.443 80.9997 311.625 120.342C317.459 136.344 324.192 152.014 329.237 168.31C340.538 202.3 342.208 240.079 330.576 274.234C316.633 315.839 287.187 350.583 252.77 376.958C249.339 380.158 244.257 382.126 242.625 386.853C246.422 386.136 250.165 385.106 253.944 384.241C241.285 398.698 225.801 410.359 211.363 422.94C239.487 409.531 268.529 396.583 292.379 376.056C322.999 351.337 346.28 317.917 360.425 281.26C365.727 266.859 369.543 251.685 369.268 236.253C369.8 218.614 365.159 201.38 359.581 184.827C357.307 176.936 354.096 169.175 353.546 160.898C361.489 174.306 372.607 185.36 381.964 197.72C391.724 209.4 401.172 221.355 411.079 232.924C433.351 261.01 453.807 291.027 467.384 324.41C481.162 360.073 487.913 399.489 480.042 437.378M459.843 498.479C460.284 498.387 461.146 498.184 461.568 498.092C461.568 490.551 466.888 484.831 469.328 478.081C474.263 464.93 478.061 451.301 480.042 437.378M459.843 498.479C459.55 498.479 458.963 498.479 458.651 498.479C462.393 493.347 462.008 487.002 462.32 481.006C464.522 464.084 462.082 446.63 456.247 430.628C452.303 419.151 444.854 409.329 437.222 400.096C429.554 392.168 422.142 383.726 412.602 378.043C412.528 398.643 410.345 420.604 397.943 437.819C385.688 455.035 365.507 468.59 343.712 467.266C330.87 467.45 318.321 460.295 311.551 449.425C305.79 439.052 303.497 426.581 305.387 414.865C307.937 388.306 324.522 366.272 338.795 344.77C339.878 353.047 336.337 360.809 335.199 368.883C332.723 381.409 332.301 394.872 337.107 406.938C340.3 414.074 349.087 420.346 356.738 415.638C375.433 405.503 387.724 387.055 397.081 368.479C409.575 340.687 408.511 309.548 415.335 280.359C417.243 285.84 419.041 291.358 420.234 297.041C425.132 319.462 435.553 340.264 448.304 359.19C459.33 375.192 470.668 391.672 475.548 410.764C478.098 419.427 478.905 428.439 480.042 437.378M199.401 100.312C221.637 115.063 236.258 139.397 243.45 164.76C249.963 186.409 247.945 209.749 255.669 231.103C261.191 246.737 260.916 263.474 260.108 279.826C258.182 289.794 257.265 300.205 252.825 309.475C252.495 312.73 252.201 316.004 251.669 319.241C251.339 306.348 251.651 293.455 251.027 280.561C250.147 274.584 249.541 268.036 245.413 263.272C244.863 273.498 246.881 284.056 243.395 293.97C239.487 304.876 235.029 315.82 227.562 324.833C230.039 310.707 234.717 295.993 230.846 281.665C228.59 273.057 222.517 266.307 218.316 258.692C216.72 245.909 227.452 231.305 217.949 219.939C217.821 205.151 220.297 190.473 219.618 175.667C218.499 152.272 214.72 128.563 204.611 107.246C203.345 104.616 201.309 102.482 199.401 100.312ZM264.53 168.88L267.649 168.2C267.704 169.616 267.814 172.43 267.869 173.846C268.199 173 268.86 171.308 269.19 170.481C268.401 184.864 282.454 194.869 282.491 209.234C282.399 221.245 284.014 233.733 280.858 245.394C280.399 247.859 279.996 250.342 279.592 252.825C278.877 246.056 279.5 239.141 278.124 232.446C275.721 223.93 272.364 215.653 267.961 207.947C264.677 201.822 260.329 195.789 260.035 188.579C259.778 181.737 262.292 175.226 264.53 168.88ZM206.813 204.93C210.647 208.793 215.307 212.085 217.509 217.29C213.95 217.051 210.409 216.885 206.868 216.83C206.905 212.857 206.868 208.885 206.813 204.93ZM210.189 273.517C211.253 273.664 213.381 273.977 214.445 274.124C215.692 275.301 216.958 276.496 218.224 277.674C218.298 280.947 218.096 284.24 217.637 287.495C216.243 283.522 213.784 280.12 210.794 277.214C210.647 276.294 210.335 274.436 210.189 273.517Z" stroke="#F66C24" stroke-width="0.333333"/>
</g>
<defs>
<clipPath id="clip0_11_2">
<rect width="682.667" height="682.667" fill="white"/>
</clipPath>
</defs>
</svg>
